<svg width="48" height="48" viewBox="0 0 48 48" fill="none" xmlns="http://www.w3.org/2000/svg">
<path d="M34 26H33C29.134 26 26 22.866 26 19C26 15.134 29.134 12 33 12C36.866 12 40 15.134 40 19V33C40 34.6569 38.6569 36 37 36C35.3431 36 34 34.6569 34 33V26Z" stroke="#926247" stroke-width="4" stroke-linejoin="round"/>
<path d="M14 26H13C9.13401 26 6 22.866 6 19C6 15.134 9.13401 12 13 12C16.866 12 20 15.134 20 19V33C20 34.6569 18.6569 36 17 36C15.3431 36 14 34.6569 14 33V26Z" stroke="#926247" stroke-width="4" stroke-linejoin="round"/>
</svg>
